<svg id="Layer_1" data-name="Layer 1" xmlns="http://www.w3.org/2000/svg" viewBox="0 0 500 500"><defs><style>.cls-1{fill:#fff;}</style></defs><title>arrow</title><path class="cls-1" d="M453.5,407.82V92.18A44.82,44.82,0,0,0,408.82,47.5H93.18A44.82,44.82,0,0,0,48.5,92.18V407.82A44.82,44.82,0,0,0,93.18,452.5H408.82A44.82,44.82,0,0,0,453.5,407.82ZM500,46.33V453.67A46.47,46.47,0,0,1,453.67,500H46.33A46.47,46.47,0,0,1,0,453.67V46.33A46.47,46.47,0,0,1,46.33,0H453.67A46.47,46.47,0,0,1,500,46.33Z"/><rect class="cls-1" x="212" y="189" width="77" height="248"/><polygon class="cls-1" points="118.98 250 250.3 67.16 381.63 250 118.98 250"/></svg>